<mxfile host="app.diagrams.net" modified="2024-05-30T01:20:10.485Z" agent="Mozilla/5.0 (Windows NT 10.0; Win64; x64) AppleWebKit/537.36 (KHTML, like Gecko) Chrome/125.0.0.0 Safari/537.36 Edg/125.0.0.0" version="24.4.10" etag="kxoF8jLHe1p3WBhIuYGS" type="github">
  <diagram name="Page-1" id="Zaehiu7mAJm6P80SrgMI">
    <mxGraphModel>
      <root>
        <mxCell id="0" />
        <mxCell id="1" parent="0" />
      </root>
    </mxGraphModel>
  </diagram>
</mxfile>
